<?xml version="1.0" encoding="UTF-8"?>
<svg width="151px" height="82px" viewBox="0 0 151 82" version="1.1" xmlns="http://www.w3.org/2000/svg" xmlns:xlink="http://www.w3.org/1999/xlink">
    <title>Logo</title>
    <g id="Web-Design" stroke="none" stroke-width="1" fill="none" fill-rule="evenodd">
        <g id="Desktop" transform="translate(-58.000000, -10.000000)">
            <g id="Logo" transform="translate(59.000000, 10.000000)">
                <path d="M5.61666023,46.5457817 L13.6676891,46.5457817 L9.64217465,36.7793553 L5.61666023,46.5457817 Z M14.3227248,48.168292 L4.93025995,48.168292 L1.9349491,55.5015561 L3.55271368e-15,55.5015561 L9.64217465,32.8165699 L19.2843493,55.5015561 L17.3494002,55.5015561 L14.3227248,48.168292 Z" id="Fill-11" fill="#FDFDFD"></path>
                <path d="M5.61666023,46.5457817 L13.6676891,46.5457817 L9.64217465,36.7793553 L5.61666023,46.5457817 Z M14.3227248,48.168292 L4.93025995,48.168292 L1.9349491,55.5015561 L3.55271368e-15,55.5015561 L9.64217465,32.8165699 L19.2843493,55.5015561 L17.3494002,55.5015561 L14.3227248,48.168292 Z" id="Stroke-13" stroke="#FFFEFD" stroke-width="0.604"></path>
                <path d="M33.9718675,53.5510454 C37.2796172,53.5510454 39.4944342,51.8971706 39.4944342,48.6521499 C39.4944342,45.5941101 36.9044494,43.8775062 33.9718675,43.8775062 L30.6327534,43.8775062 L30.6327534,53.5510454 L33.9718675,53.5510454 Z M30.6327534,34.7661156 L30.6327534,42.3490894 L33.6594288,42.3490894 C36.2180491,42.3490894 38.3086144,41.1632696 38.3086144,38.6046493 C38.3086144,36.2016452 36.4677589,34.7661156 33.6594288,34.7661156 L30.6327534,34.7661156 Z M33.9718675,55.0806685 L28.9173559,55.0806685 L28.9173559,33.2376988 L33.6594288,33.2376988 C37.5606915,33.2376988 40.0252183,35.0471899 40.0252183,38.5105557 C40.0252183,40.9762889 38.4955952,42.5047057 36.1251619,43.0982187 C38.933492,43.659161 41.2424026,45.5012228 41.2424026,48.7462435 C41.2424026,53.0829904 38.1843627,55.0806685 33.9718675,55.0806685 L33.9718675,55.0806685 Z" id="Fill-15" fill="#FDFDFD"></path>
                <path d="M33.9718675,53.5510454 C37.2796172,53.5510454 39.4944342,51.8971706 39.4944342,48.6521499 C39.4944342,45.5941101 36.9044494,43.8775062 33.9718675,43.8775062 L30.6327534,43.8775062 L30.6327534,53.5510454 L33.9718675,53.5510454 Z M30.6327534,34.7661156 L30.6327534,42.3490894 L33.6594288,42.3490894 C36.2180491,42.3490894 38.3086144,41.1632696 38.3086144,38.6046493 C38.3086144,36.2016452 36.4677589,34.7661156 33.6594288,34.7661156 L30.6327534,34.7661156 Z M33.9718675,55.0806685 L28.9173559,55.0806685 L28.9173559,33.2376988 L33.6594288,33.2376988 C37.5606915,33.2376988 40.0252183,35.0471899 40.0252183,38.5105557 C40.0252183,40.9762889 38.4955952,42.5047057 36.1251619,43.0982187 C38.933492,43.659161 41.2424026,45.5012228 41.2424026,48.7462435 C41.2424026,53.0829904 38.1843627,55.0806685 33.9718675,55.0806685 Z" id="Stroke-17" stroke="#FFFEFD" stroke-width="0.604"></path>
                <polygon id="Fill-19" fill="#FDFDFD" points="101.701118 33.2379401 101.701118 42.3806952 114.464061 42.3806952 114.464061 33.2379401 116.210823 33.2379401 116.210823 55.0797034 114.464061 55.0797034 114.464061 44.0032055 101.701118 44.0032055 101.701118 55.0797034 99.9857201 55.0797034 99.9857201 33.2379401"></polygon>
                <polygon id="Stroke-21" stroke="#FFFEFD" stroke-width="0.604" points="101.701118 33.2379401 101.701118 42.3806952 114.464061 42.3806952 114.464061 33.2379401 116.210823 33.2379401 116.210823 55.0797034 114.464061 55.0797034 114.464061 44.0032055 101.701118 44.0032055 101.701118 55.0797034 99.9857201 55.0797034 99.9857201 33.2379401"></polygon>
                <path d="M130.980492,52.2876587 L144.335743,52.2876587 L137.657514,34.969623 L130.980492,52.2876587 Z M128.109433,53.910169 L128.109433,57.3421704 L126.581016,57.3421704 L126.581016,52.2876587 L129.139637,52.2876587 L137.657514,30.9754731 L146.176598,52.2876587 L148.735219,52.2876587 L148.735219,57.3421704 L147.206802,57.3421704 L147.206802,53.910169 L128.109433,53.910169 Z" id="Fill-23" fill="#FDFDFD"></path>
                <path d="M130.980492,52.2876587 L144.335743,52.2876587 L137.657514,34.969623 L130.980492,52.2876587 Z M128.109433,53.910169 L128.109433,57.3421704 L126.581016,57.3421704 L126.581016,52.2876587 L129.139637,52.2876587 L137.657514,30.9754731 L146.176598,52.2876587 L148.735219,52.2876587 L148.735219,57.3421704 L147.206802,57.3421704 L147.206802,53.910169 L128.109433,53.910169 Z" id="Stroke-25" stroke="#FFFEFD" stroke-width="0.604"></path>
                <polygon id="Fill-27" fill="#FDFDFD" points="58.0906944 55.766345 84.0761923 25.2872777 84.0761923 61.1875801 81.3884949 61.1875801 81.3884949 32.4190851 55.4042034 62.8981524 55.4042034 26.9966435 58.0906944 26.9966435"></polygon>
                <polygon id="Stroke-29" stroke="#FFFEFD" stroke-width="0.945" points="58.0906944 55.766345 84.0761923 25.2872777 84.0761923 61.1875801 81.3884949 61.1875801 81.3884949 32.4190851 55.4042034 62.8981524 55.4042034 26.9966435 58.0906944 26.9966435"></polygon>
                <g id="Group-6" transform="translate(46.964616, 0.000000)">
                    <path d="M1.04841912,78.4468677 C1.04841912,78.4468677 2.99543149,64.2146174 16.6317561,49.4298692 C33.2778674,31.3795928 43.6474575,17.1292476 46.4666445,5.61605917 C46.4666445,5.61605917 45.9491301,18.7107428 34.4395607,32.7572186 C21.7345208,48.260938 10.7569418,58.8717935 1.04841912,78.4468677" id="Fill-31" fill="#FDFDFD"></path>
                    <path d="M1.04841912,78.4468677 C1.04841912,78.4468677 2.99543149,64.2146174 16.6317561,49.4298692 C33.2778674,31.3795928 43.6474575,17.1292476 46.4666445,5.61605917 C46.4666445,5.61605917 45.9491301,18.7107428 34.4395607,32.7572186 C21.7345208,48.260938 10.7569418,58.8717935 1.04841912,78.4468677 Z" id="Stroke-33" stroke="#FFFEFD" stroke-width="0.945"></path>
                    <path d="M0,81.8049212 C0.09168088,77.7866447 1.15686795,73.8564302 2.55620769,70.1059584 C3.98208664,66.3506613 5.86636999,62.7823449 8.01483903,59.3913587 C12.4022517,52.6540203 17.6594263,46.594638 22.7983809,40.4833835 C27.9783507,34.4071126 33.2982543,28.4249352 37.8762667,21.9252433 C38.9824689,20.2653368 40.0934964,18.6259379 40.9849723,16.8622873 C41.8897179,15.0974304 42.6846876,13.2722571 43.4217536,11.4241636 C44.9127742,7.7328018 46.1142763,3.92080732 47.1613685,0.070210361 C47.1734317,0.0207509389 47.2253038,-0.00940724531 47.2747632,0.00265602838 C47.3242227,0.0159256294 47.3531745,0.0665913789 47.3423176,0.116050801 C46.4146518,4.00283758 45.3313698,7.86308516 43.9452997,11.6256202 C43.2456298,13.5038719 42.4675487,15.3567908 41.5833107,17.1638692 C40.7026917,18.9818045 39.5940769,20.6803134 38.5156202,22.3583148 C33.9870673,29.002766 28.643037,34.9752928 23.5101141,41.0901662 C18.3265254,47.1567865 13.0729697,53.1968677 8.63609763,59.794272 C6.44781978,63.106847 4.5092517,66.6015774 3.02546904,70.2905265 C1.51394085,73.9541427 0.322089407,77.8228346 0.0940935347,81.8037149 C0.0952998621,81.8290477 0.0747922968,81.851968 0.0494594221,81.853334 C0.0241265474,81.8555869 0.00241265474,81.8302541 0,81.8049212" id="Fill-35" fill="#D23630"></path>
                </g>
            </g>
        </g>
    </g>
</svg>